{
	"asset":{
		"generator":"Khronos glTF Blender I/O v5.1.19",
		"version":"2.0"
	},
	"scene":0,
	"scenes":[
		{
			"name":"Scene",
			"nodes":[
				0,
				1
			]
		}
	],
	"nodes":[
		{
			"mesh":0,
			"name":"\u5186\u67f1",
			"rotation":[
				0,
				0.7064827084541321,
				0,
				0.7077303528785706
			],
			"scale":[
				25.000001907348633,
				0.699999988079071,
				30.000017166137695
			],
			"translation":[
				0,
				0.699999988079071,
				0
			]
		},
		{
			"mesh":1,
			"name":"\u5186\u67f1.002",
			"scale":[
				47.2713623046875,
				0.699999988079071,
				48
			],
			"translation":[
				0,
				0.699999988079071,
				0
			]
		}
	],
	"materials":[
		{
			"doubleSided":true,
			"name":"\u30de\u30c6\u30ea\u30a2\u30eb.001",
			"pbrMetallicRoughness":{
				"baseColorTexture":{
					"index":0
				},
				"metallicFactor":0,
				"roughnessFactor":0.5
			}
		},
		{
			"doubleSided":true,
			"name":"\u30de\u30c6\u30ea\u30a2\u30eb",
			"pbrMetallicRoughness":{
				"baseColorTexture":{
					"index":1
				},
				"metallicFactor":0,
				"roughnessFactor":0.5
			}
		}
	],
	"meshes":[
		{
			"name":"\u5186\u67f1.001",
			"primitives":[
				{
					"attributes":{
						"POSITION":0,
						"NORMAL":1,
						"TEXCOORD_0":2
					},
					"indices":3,
					"material":0
				},
				{
					"attributes":{
						"POSITION":4,
						"NORMAL":5,
						"TEXCOORD_0":6
					},
					"indices":7,
					"material":1
				}
			]
		},
		{
			"name":"\u5186\u67f1.002",
			"primitives":[
				{
					"attributes":{
						"POSITION":8,
						"NORMAL":9,
						"TEXCOORD_0":10
					},
					"indices":11,
					"material":1
				}
			]
		}
	],
	"textures":[
		{
			"sampler":0,
			"source":0
		},
		{
			"sampler":0,
			"source":1
		}
	],
	"images":[
		{
			"mimeType":"image/png",
			"name":"suna",
			"uri":"suna.png"
		},
		{
			"mimeType":"image/png",
			"name":"Grass",
			"uri":"Grass.png"
		}
	],
	"accessors":[
		{
			"bufferView":0,
			"componentType":5126,
			"count":128,
			"max":[
				0.9026655554771423,
				1,
				0.9026655554771423
			],
			"min":[
				-1.2219188213348389,
				-1.1312050819396973,
				-0.9026655554771423
			],
			"type":"VEC3"
		},
		{
			"bufferView":1,
			"componentType":5126,
			"count":128,
			"type":"VEC3"
		},
		{
			"bufferView":2,
			"componentType":5126,
			"count":128,
			"type":"VEC2"
		},
		{
			"bufferView":3,
			"componentType":5123,
			"count":192,
			"type":"SCALAR"
		},
		{
			"bufferView":4,
			"componentType":5126,
			"count":284,
			"max":[
				1,
				1,
				1
			],
			"min":[
				-1.3192532062530518,
				-1,
				-1
			],
			"type":"VEC3"
		},
		{
			"bufferView":5,
			"componentType":5126,
			"count":284,
			"type":"VEC3"
		},
		{
			"bufferView":6,
			"componentType":5126,
			"count":284,
			"type":"VEC2"
		},
		{
			"bufferView":7,
			"componentType":5123,
			"count":426,
			"type":"SCALAR"
		},
		{
			"bufferView":8,
			"componentType":5126,
			"count":94,
			"max":[
				0.9510565400123596,
				1.0496022701263428,
				1
			],
			"min":[
				-0.9510565400123596,
				-1,
				-1
			],
			"type":"VEC3"
		},
		{
			"bufferView":9,
			"componentType":5126,
			"count":94,
			"type":"VEC3"
		},
		{
			"bufferView":10,
			"componentType":5126,
			"count":94,
			"type":"VEC2"
		},
		{
			"bufferView":11,
			"componentType":5123,
			"count":186,
			"type":"SCALAR"
		}
	],
	"bufferViews":[
		{
			"buffer":0,
			"byteLength":1536,
			"byteOffset":0,
			"target":34962
		},
		{
			"buffer":0,
			"byteLength":1536,
			"byteOffset":1536,
			"target":34962
		},
		{
			"buffer":0,
			"byteLength":1024,
			"byteOffset":3072,
			"target":34962
		},
		{
			"buffer":0,
			"byteLength":384,
			"byteOffset":4096,
			"target":34963
		},
		{
			"buffer":0,
			"byteLength":3408,
			"byteOffset":4480,
			"target":34962
		},
		{
			"buffer":0,
			"byteLength":3408,
			"byteOffset":7888,
			"target":34962
		},
		{
			"buffer":0,
			"byteLength":2272,
			"byteOffset":11296,
			"target":34962
		},
		{
			"buffer":0,
			"byteLength":852,
			"byteOffset":13568,
			"target":34963
		},
		{
			"buffer":0,
			"byteLength":1128,
			"byteOffset":14420,
			"target":34962
		},
		{
			"buffer":0,
			"byteLength":1128,
			"byteOffset":15548,
			"target":34962
		},
		{
			"buffer":0,
			"byteLength":752,
			"byteOffset":16676,
			"target":34962
		},
		{
			"buffer":0,
			"byteLength":372,
			"byteOffset":17428,
			"target":34963
		}
	],
	"samplers":[
		{
			"magFilter":9729,
			"minFilter":9987
		}
	],
	"buffers":[
		{
			"byteLength":17800,
			"uri":"Wall.bin"
		}
	]
}
