{
	"asset":{
		"generator":"Khronos glTF Blender I/O v5.1.19",
		"version":"2.0"
	},
	"scene":0,
	"scenes":[
		{
			"name":"Scene",
			"nodes":[
				0
			]
		}
	],
	"nodes":[
		{
			"mesh":0,
			"name":"COL",
			"scale":[
				0.5,
				1,
				0.5
			],
			"translation":[
				0,
				1,
				0
			]
		}
	],
	"meshes":[
		{
			"name":"\u7403",
			"primitives":[
				{
					"attributes":{
						"POSITION":0,
						"NORMAL":1,
						"TEXCOORD_0":2
					},
					"indices":3
				}
			]
		}
	],
	"accessors":[
		{
			"bufferView":0,
			"componentType":5126,
			"count":620,
			"max":[
				0.9510565996170044,
				1,
				1.0000001192092896
			],
			"min":[
				-0.951056718826294,
				-1,
				-1
			],
			"type":"VEC3"
		},
		{
			"bufferView":1,
			"componentType":5126,
			"count":620,
			"type":"VEC3"
		},
		{
			"bufferView":2,
			"componentType":5126,
			"count":620,
			"type":"VEC2"
		},
		{
			"bufferView":3,
			"componentType":5123,
			"count":900,
			"type":"SCALAR"
		}
	],
	"bufferViews":[
		{
			"buffer":0,
			"byteLength":7440,
			"byteOffset":0,
			"target":34962
		},
		{
			"buffer":0,
			"byteLength":7440,
			"byteOffset":7440,
			"target":34962
		},
		{
			"buffer":0,
			"byteLength":4960,
			"byteOffset":14880,
			"target":34962
		},
		{
			"buffer":0,
			"byteLength":1800,
			"byteOffset":19840,
			"target":34963
		}
	],
	"buffers":[
		{
			"byteLength":21640,
			"uri":"Enemy.bin"
		}
	]
}
