{
	"asset":{
		"generator":"Khronos glTF Blender I/O v5.1.19",
		"version":"2.0"
	},
	"scene":0,
	"scenes":[
		{
			"name":"Scene",
			"nodes":[
				0,
				1,
				2,
				3,
				4,
				5,
				6,
				7,
				8,
				9,
				10,
				11,
				12,
				13
			]
		}
	],
	"nodes":[
		{
			"mesh":0,
			"name":"tree19",
			"rotation":[
				0.7071066498756409,
				0,
				0,
				0.70710688829422
			],
			"scale":[
				0.009999999776482582,
				0.009999999776482582,
				0.009999999776482582
			],
			"translation":[
				33.125335693359375,
				1,
				-5.392444133758545
			]
		},
		{
			"mesh":1,
			"name":"tree19.001",
			"rotation":[
				0.7071066498756409,
				0,
				0,
				0.70710688829422
			],
			"scale":[
				0.009999999776482582,
				0.009999999776482582,
				0.009999999776482582
			],
			"translation":[
				33.14942169189453,
				1,
				8.734004020690918
			]
		},
		{
			"mesh":2,
			"name":"tree19.002",
			"rotation":[
				0.7071066498756409,
				0,
				0,
				0.70710688829422
			],
			"scale":[
				0.009999999776482582,
				0.009999999776482582,
				0.009999999776482582
			],
			"translation":[
				26.73173713684082,
				1,
				21.23186683654785
			]
		},
		{
			"mesh":3,
			"name":"tree19.003",
			"rotation":[
				0.7071066498756409,
				0,
				0,
				0.70710688829422
			],
			"scale":[
				0.009999999776482582,
				0.009999999776482582,
				0.009999999776482582
			],
			"translation":[
				15.770917892456055,
				1,
				29.8927001953125
			]
		},
		{
			"mesh":4,
			"name":"tree19.004",
			"rotation":[
				0.7071066498756409,
				0,
				0,
				0.70710688829422
			],
			"scale":[
				0.009999999776482582,
				0.009999999776482582,
				0.009999999776482582
			],
			"translation":[
				0.05943930149078369,
				1,
				38.289730072021484
			]
		},
		{
			"mesh":5,
			"name":"tree19.005",
			"rotation":[
				0.7071066498756409,
				0,
				0,
				0.70710688829422
			],
			"scale":[
				0.009999999776482582,
				0.009999999776482582,
				0.009999999776482582
			],
			"translation":[
				-15.76247501373291,
				1,
				29.75338363647461
			]
		},
		{
			"mesh":6,
			"name":"tree19.006",
			"rotation":[
				0.7071066498756409,
				0,
				0,
				0.70710688829422
			],
			"scale":[
				0.009999999776482582,
				0.009999999776482582,
				0.009999999776482582
			],
			"translation":[
				-26.92215347290039,
				1,
				21.627761840820312
			]
		},
		{
			"mesh":7,
			"name":"tree19.007",
			"rotation":[
				0.7071066498756409,
				0,
				0,
				0.70710688829422
			],
			"scale":[
				0.009999999776482582,
				0.009999999776482582,
				0.009999999776482582
			],
			"translation":[
				-35.12439727783203,
				1,
				9.2725830078125
			]
		},
		{
			"mesh":8,
			"name":"tree19.008",
			"rotation":[
				0.7071066498756409,
				0,
				0,
				0.70710688829422
			],
			"scale":[
				0.009999999776482582,
				0.009999999776482582,
				0.009999999776482582
			],
			"translation":[
				-35.24980926513672,
				1,
				-6.616471290588379
			]
		},
		{
			"mesh":9,
			"name":"tree19.009",
			"rotation":[
				0.7071066498756409,
				0,
				0,
				0.70710688829422
			],
			"scale":[
				0.009999999776482582,
				0.009999999776482582,
				0.009999999776482582
			],
			"translation":[
				-29.309814453125,
				1,
				-19.8358211517334
			]
		},
		{
			"mesh":10,
			"name":"tree19.010",
			"rotation":[
				0.7071066498756409,
				0,
				0,
				0.70710688829422
			],
			"scale":[
				0.009999999776482582,
				0.009999999776482582,
				0.009999999776482582
			],
			"translation":[
				-16.74590492248535,
				1,
				-29.76853370666504
			]
		},
		{
			"mesh":11,
			"name":"tree19.011",
			"rotation":[
				0.7071066498756409,
				0,
				0,
				0.70710688829422
			],
			"scale":[
				0.009999999776482582,
				0.009999999776482582,
				0.009999999776482582
			],
			"translation":[
				-0.1665055751800537,
				1,
				-33.51284408569336
			]
		},
		{
			"mesh":12,
			"name":"tree19.012",
			"rotation":[
				0.7071066498756409,
				0,
				0,
				0.70710688829422
			],
			"scale":[
				0.009999999776482582,
				0.009999999776482582,
				0.009999999776482582
			],
			"translation":[
				15.314915657043457,
				1,
				-30.083221435546875
			]
		},
		{
			"mesh":13,
			"name":"tree19.013",
			"rotation":[
				0.7071066498756409,
				0,
				0,
				0.70710688829422
			],
			"scale":[
				0.009999999776482582,
				0.009999999776482582,
				0.009999999776482582
			],
			"translation":[
				27.512758255004883,
				1,
				-19.485511779785156
			]
		}
	],
	"materials":[
		{
			"doubleSided":true,
			"name":"tree19.001",
			"pbrMetallicRoughness":{
				"baseColorTexture":{
					"index":0
				},
				"metallicFactor":0,
				"roughnessFactor":0.4000000059604645
			}
		}
	],
	"meshes":[
		{
			"name":"tree19.001",
			"primitives":[
				{
					"attributes":{
						"POSITION":0,
						"NORMAL":1,
						"TEXCOORD_0":2
					},
					"indices":3,
					"material":0
				}
			]
		},
		{
			"name":"tree19.002",
			"primitives":[
				{
					"attributes":{
						"POSITION":4,
						"NORMAL":5,
						"TEXCOORD_0":6
					},
					"indices":3,
					"material":0
				}
			]
		},
		{
			"name":"tree19.003",
			"primitives":[
				{
					"attributes":{
						"POSITION":7,
						"NORMAL":8,
						"TEXCOORD_0":9
					},
					"indices":3,
					"material":0
				}
			]
		},
		{
			"name":"tree19.004",
			"primitives":[
				{
					"attributes":{
						"POSITION":10,
						"NORMAL":11,
						"TEXCOORD_0":12
					},
					"indices":3,
					"material":0
				}
			]
		},
		{
			"name":"tree19.005",
			"primitives":[
				{
					"attributes":{
						"POSITION":13,
						"NORMAL":14,
						"TEXCOORD_0":15
					},
					"indices":3,
					"material":0
				}
			]
		},
		{
			"name":"tree19.006",
			"primitives":[
				{
					"attributes":{
						"POSITION":16,
						"NORMAL":17,
						"TEXCOORD_0":18
					},
					"indices":3,
					"material":0
				}
			]
		},
		{
			"name":"tree19.007",
			"primitives":[
				{
					"attributes":{
						"POSITION":19,
						"NORMAL":20,
						"TEXCOORD_0":21
					},
					"indices":3,
					"material":0
				}
			]
		},
		{
			"name":"tree19.008",
			"primitives":[
				{
					"attributes":{
						"POSITION":22,
						"NORMAL":23,
						"TEXCOORD_0":24
					},
					"indices":3,
					"material":0
				}
			]
		},
		{
			"name":"tree19.009",
			"primitives":[
				{
					"attributes":{
						"POSITION":25,
						"NORMAL":26,
						"TEXCOORD_0":27
					},
					"indices":3,
					"material":0
				}
			]
		},
		{
			"name":"tree19.010",
			"primitives":[
				{
					"attributes":{
						"POSITION":28,
						"NORMAL":29,
						"TEXCOORD_0":30
					},
					"indices":3,
					"material":0
				}
			]
		},
		{
			"name":"tree19.011",
			"primitives":[
				{
					"attributes":{
						"POSITION":31,
						"NORMAL":32,
						"TEXCOORD_0":33
					},
					"indices":3,
					"material":0
				}
			]
		},
		{
			"name":"tree19.012",
			"primitives":[
				{
					"attributes":{
						"POSITION":34,
						"NORMAL":35,
						"TEXCOORD_0":36
					},
					"indices":3,
					"material":0
				}
			]
		},
		{
			"name":"tree19.013",
			"primitives":[
				{
					"attributes":{
						"POSITION":37,
						"NORMAL":38,
						"TEXCOORD_0":39
					},
					"indices":3,
					"material":0
				}
			]
		},
		{
			"name":"tree19.014",
			"primitives":[
				{
					"attributes":{
						"POSITION":40,
						"NORMAL":41,
						"TEXCOORD_0":42
					},
					"indices":3,
					"material":0
				}
			]
		}
	],
	"textures":[
		{
			"sampler":0,
			"source":0
		}
	],
	"images":[
		{
			"mimeType":"image/png",
			"name":"tree19",
			"uri":"tree19.png"
		}
	],
	"accessors":[
		{
			"bufferView":0,
			"componentType":5126,
			"count":105,
			"max":[
				600,
				600.0000610351562,
				0
			],
			"min":[
				-600,
				-600.0000610351562,
				-1250
			],
			"type":"VEC3"
		},
		{
			"bufferView":1,
			"componentType":5126,
			"count":105,
			"type":"VEC3"
		},
		{
			"bufferView":2,
			"componentType":5126,
			"count":105,
			"type":"VEC2"
		},
		{
			"bufferView":3,
			"componentType":5123,
			"count":156,
			"type":"SCALAR"
		},
		{
			"bufferView":4,
			"componentType":5126,
			"count":105,
			"max":[
				600,
				600.0000610351562,
				0
			],
			"min":[
				-600,
				-600.0000610351562,
				-1250
			],
			"type":"VEC3"
		},
		{
			"bufferView":5,
			"componentType":5126,
			"count":105,
			"type":"VEC3"
		},
		{
			"bufferView":6,
			"componentType":5126,
			"count":105,
			"type":"VEC2"
		},
		{
			"bufferView":7,
			"componentType":5126,
			"count":105,
			"max":[
				600,
				600.0000610351562,
				0
			],
			"min":[
				-600,
				-600.0000610351562,
				-1250
			],
			"type":"VEC3"
		},
		{
			"bufferView":8,
			"componentType":5126,
			"count":105,
			"type":"VEC3"
		},
		{
			"bufferView":9,
			"componentType":5126,
			"count":105,
			"type":"VEC2"
		},
		{
			"bufferView":10,
			"componentType":5126,
			"count":105,
			"max":[
				600,
				600.0000610351562,
				0
			],
			"min":[
				-600,
				-600.0000610351562,
				-1250
			],
			"type":"VEC3"
		},
		{
			"bufferView":11,
			"componentType":5126,
			"count":105,
			"type":"VEC3"
		},
		{
			"bufferView":12,
			"componentType":5126,
			"count":105,
			"type":"VEC2"
		},
		{
			"bufferView":13,
			"componentType":5126,
			"count":105,
			"max":[
				600,
				600.0000610351562,
				0
			],
			"min":[
				-600,
				-600.0000610351562,
				-1250
			],
			"type":"VEC3"
		},
		{
			"bufferView":14,
			"componentType":5126,
			"count":105,
			"type":"VEC3"
		},
		{
			"bufferView":15,
			"componentType":5126,
			"count":105,
			"type":"VEC2"
		},
		{
			"bufferView":16,
			"componentType":5126,
			"count":105,
			"max":[
				600,
				600.0000610351562,
				0
			],
			"min":[
				-600,
				-600.0000610351562,
				-1250
			],
			"type":"VEC3"
		},
		{
			"bufferView":17,
			"componentType":5126,
			"count":105,
			"type":"VEC3"
		},
		{
			"bufferView":18,
			"componentType":5126,
			"count":105,
			"type":"VEC2"
		},
		{
			"bufferView":19,
			"componentType":5126,
			"count":105,
			"max":[
				600,
				600.0000610351562,
				0
			],
			"min":[
				-600,
				-600.0000610351562,
				-1250
			],
			"type":"VEC3"
		},
		{
			"bufferView":20,
			"componentType":5126,
			"count":105,
			"type":"VEC3"
		},
		{
			"bufferView":21,
			"componentType":5126,
			"count":105,
			"type":"VEC2"
		},
		{
			"bufferView":22,
			"componentType":5126,
			"count":105,
			"max":[
				600,
				600.0000610351562,
				0
			],
			"min":[
				-600,
				-600.0000610351562,
				-1250
			],
			"type":"VEC3"
		},
		{
			"bufferView":23,
			"componentType":5126,
			"count":105,
			"type":"VEC3"
		},
		{
			"bufferView":24,
			"componentType":5126,
			"count":105,
			"type":"VEC2"
		},
		{
			"bufferView":25,
			"componentType":5126,
			"count":105,
			"max":[
				600,
				600.0000610351562,
				0
			],
			"min":[
				-600,
				-600.0000610351562,
				-1250
			],
			"type":"VEC3"
		},
		{
			"bufferView":26,
			"componentType":5126,
			"count":105,
			"type":"VEC3"
		},
		{
			"bufferView":27,
			"componentType":5126,
			"count":105,
			"type":"VEC2"
		},
		{
			"bufferView":28,
			"componentType":5126,
			"count":105,
			"max":[
				600,
				600.0000610351562,
				0
			],
			"min":[
				-600,
				-600.0000610351562,
				-1250
			],
			"type":"VEC3"
		},
		{
			"bufferView":29,
			"componentType":5126,
			"count":105,
			"type":"VEC3"
		},
		{
			"bufferView":30,
			"componentType":5126,
			"count":105,
			"type":"VEC2"
		},
		{
			"bufferView":31,
			"componentType":5126,
			"count":105,
			"max":[
				600,
				600.0000610351562,
				0
			],
			"min":[
				-600,
				-600.0000610351562,
				-1250
			],
			"type":"VEC3"
		},
		{
			"bufferView":32,
			"componentType":5126,
			"count":105,
			"type":"VEC3"
		},
		{
			"bufferView":33,
			"componentType":5126,
			"count":105,
			"type":"VEC2"
		},
		{
			"bufferView":34,
			"componentType":5126,
			"count":105,
			"max":[
				600,
				600.0000610351562,
				0
			],
			"min":[
				-600,
				-600.0000610351562,
				-1250
			],
			"type":"VEC3"
		},
		{
			"bufferView":35,
			"componentType":5126,
			"count":105,
			"type":"VEC3"
		},
		{
			"bufferView":36,
			"componentType":5126,
			"count":105,
			"type":"VEC2"
		},
		{
			"bufferView":37,
			"componentType":5126,
			"count":105,
			"max":[
				600,
				600.0000610351562,
				0
			],
			"min":[
				-600,
				-600.0000610351562,
				-1250
			],
			"type":"VEC3"
		},
		{
			"bufferView":38,
			"componentType":5126,
			"count":105,
			"type":"VEC3"
		},
		{
			"bufferView":39,
			"componentType":5126,
			"count":105,
			"type":"VEC2"
		},
		{
			"bufferView":40,
			"componentType":5126,
			"count":105,
			"max":[
				600,
				600.0000610351562,
				0
			],
			"min":[
				-600,
				-600.0000610351562,
				-1250
			],
			"type":"VEC3"
		},
		{
			"bufferView":41,
			"componentType":5126,
			"count":105,
			"type":"VEC3"
		},
		{
			"bufferView":42,
			"componentType":5126,
			"count":105,
			"type":"VEC2"
		}
	],
	"bufferViews":[
		{
			"buffer":0,
			"byteLength":1260,
			"byteOffset":0,
			"target":34962
		},
		{
			"buffer":0,
			"byteLength":1260,
			"byteOffset":1260,
			"target":34962
		},
		{
			"buffer":0,
			"byteLength":840,
			"byteOffset":2520,
			"target":34962
		},
		{
			"buffer":0,
			"byteLength":312,
			"byteOffset":3360,
			"target":34963
		},
		{
			"buffer":0,
			"byteLength":1260,
			"byteOffset":3672,
			"target":34962
		},
		{
			"buffer":0,
			"byteLength":1260,
			"byteOffset":4932,
			"target":34962
		},
		{
			"buffer":0,
			"byteLength":840,
			"byteOffset":6192,
			"target":34962
		},
		{
			"buffer":0,
			"byteLength":1260,
			"byteOffset":7032,
			"target":34962
		},
		{
			"buffer":0,
			"byteLength":1260,
			"byteOffset":8292,
			"target":34962
		},
		{
			"buffer":0,
			"byteLength":840,
			"byteOffset":9552,
			"target":34962
		},
		{
			"buffer":0,
			"byteLength":1260,
			"byteOffset":10392,
			"target":34962
		},
		{
			"buffer":0,
			"byteLength":1260,
			"byteOffset":11652,
			"target":34962
		},
		{
			"buffer":0,
			"byteLength":840,
			"byteOffset":12912,
			"target":34962
		},
		{
			"buffer":0,
			"byteLength":1260,
			"byteOffset":13752,
			"target":34962
		},
		{
			"buffer":0,
			"byteLength":1260,
			"byteOffset":15012,
			"target":34962
		},
		{
			"buffer":0,
			"byteLength":840,
			"byteOffset":16272,
			"target":34962
		},
		{
			"buffer":0,
			"byteLength":1260,
			"byteOffset":17112,
			"target":34962
		},
		{
			"buffer":0,
			"byteLength":1260,
			"byteOffset":18372,
			"target":34962
		},
		{
			"buffer":0,
			"byteLength":840,
			"byteOffset":19632,
			"target":34962
		},
		{
			"buffer":0,
			"byteLength":1260,
			"byteOffset":20472,
			"target":34962
		},
		{
			"buffer":0,
			"byteLength":1260,
			"byteOffset":21732,
			"target":34962
		},
		{
			"buffer":0,
			"byteLength":840,
			"byteOffset":22992,
			"target":34962
		},
		{
			"buffer":0,
			"byteLength":1260,
			"byteOffset":23832,
			"target":34962
		},
		{
			"buffer":0,
			"byteLength":1260,
			"byteOffset":25092,
			"target":34962
		},
		{
			"buffer":0,
			"byteLength":840,
			"byteOffset":26352,
			"target":34962
		},
		{
			"buffer":0,
			"byteLength":1260,
			"byteOffset":27192,
			"target":34962
		},
		{
			"buffer":0,
			"byteLength":1260,
			"byteOffset":28452,
			"target":34962
		},
		{
			"buffer":0,
			"byteLength":840,
			"byteOffset":29712,
			"target":34962
		},
		{
			"buffer":0,
			"byteLength":1260,
			"byteOffset":30552,
			"target":34962
		},
		{
			"buffer":0,
			"byteLength":1260,
			"byteOffset":31812,
			"target":34962
		},
		{
			"buffer":0,
			"byteLength":840,
			"byteOffset":33072,
			"target":34962
		},
		{
			"buffer":0,
			"byteLength":1260,
			"byteOffset":33912,
			"target":34962
		},
		{
			"buffer":0,
			"byteLength":1260,
			"byteOffset":35172,
			"target":34962
		},
		{
			"buffer":0,
			"byteLength":840,
			"byteOffset":36432,
			"target":34962
		},
		{
			"buffer":0,
			"byteLength":1260,
			"byteOffset":37272,
			"target":34962
		},
		{
			"buffer":0,
			"byteLength":1260,
			"byteOffset":38532,
			"target":34962
		},
		{
			"buffer":0,
			"byteLength":840,
			"byteOffset":39792,
			"target":34962
		},
		{
			"buffer":0,
			"byteLength":1260,
			"byteOffset":40632,
			"target":34962
		},
		{
			"buffer":0,
			"byteLength":1260,
			"byteOffset":41892,
			"target":34962
		},
		{
			"buffer":0,
			"byteLength":840,
			"byteOffset":43152,
			"target":34962
		},
		{
			"buffer":0,
			"byteLength":1260,
			"byteOffset":43992,
			"target":34962
		},
		{
			"buffer":0,
			"byteLength":1260,
			"byteOffset":45252,
			"target":34962
		},
		{
			"buffer":0,
			"byteLength":840,
			"byteOffset":46512,
			"target":34962
		}
	],
	"samplers":[
		{
			"magFilter":9729,
			"minFilter":9987
		}
	],
	"buffers":[
		{
			"byteLength":47352,
			"uri":"Tree.bin"
		}
	]
}
